<svg width="17" height="21" viewBox="0 0 17 21" fill="none" xmlns="http://www.w3.org/2000/svg">
<path d="M5.69225 1.5V0H11.3077V1.5H5.69225ZM7.75 12.5577H9.25V6.94225H7.75V12.5577ZM8.5 20.25C7.33083 20.25 6.23083 20.0269 5.2 19.5807C4.16917 19.1346 3.26792 18.5256 2.49625 17.7538C1.72442 16.9821 1.11542 16.0808 0.66925 15.05C0.223083 14.0192 0 12.9192 0 11.75C0 10.5808 0.223083 9.48083 0.66925 8.45C1.11542 7.41917 1.72442 6.51792 2.49625 5.74625C3.26792 4.97442 4.16917 4.36542 5.2 3.91925C6.23083 3.47308 7.33083 3.25 8.5 3.25C9.50133 3.25 10.4657 3.41992 11.3932 3.75975C12.3207 4.09942 13.182 4.58592 13.977 5.21925L15.223 3.97325L16.2768 5.027L15.0307 6.273C15.6641 7.068 16.1506 7.92925 16.4902 8.85675C16.8301 9.78425 17 10.7487 17 11.75C17 12.9192 16.7769 14.0192 16.3307 15.05C15.8846 16.0808 15.2756 16.9821 14.5038 17.7538C13.7321 18.5256 12.8308 19.1346 11.8 19.5807C10.7692 20.0269 9.66917 20.25 8.5 20.25ZM8.5 18.75C10.4333 18.75 12.0833 18.0667 13.45 16.7C14.8167 15.3333 15.5 13.6833 15.5 11.75C15.5 9.81667 14.8167 8.16667 13.45 6.8C12.0833 5.43333 10.4333 4.75 8.5 4.75C6.56667 4.75 4.91667 5.43333 3.55 6.8C2.18333 8.16667 1.5 9.81667 1.5 11.75C1.5 13.6833 2.18333 15.3333 3.55 16.7C4.91667 18.0667 6.56667 18.75 8.5 18.75Z" fill="white"/>
</svg>
